#!OML:ASF F:\VICON\USERDATA\INSTALL\rory3\rory3.ASF
:FULLY-SPECIFIED
:DEGREES
1267
root 10.3905 18.0024 -8.85213 667.165 -85.4194 -307.501
lowerback 11.3559 2.45057 -3.27913
upperback 1.38574 2.7358 -0.913112
thorax -5.02306 1.37739 0.467034
lowerneck -20.4985 -2.4032 -10.034
upperneck 34.5198 -2.75448 5.95475
head 15.9405 -1.90063 3.72421
rclavicle -3.49364e-014 -1.07344e-014
rhumerus -31.7596 -9.00313 -83.3325
rradius 34.6375
rwrist 3.38866
rhand -17.8503 9.21868
rfingers 7.12502
rthumb 8.41481 -20.5937
lclavicle -3.49364e-014 -1.07344e-014
lhumerus -34.8665 2.90894 85.7576
lradius 30.5262
lwrist -4.47426
lhand -16.0898 25.3609
lfingers 7.12502
lthumb 10.1135 55.0978
rfemur -14.3567 -10.7348 14.1414
rtibia 62.4074
rfoot -4.9606 -8.15134
rtoes 15.7717
lfemur -2.97859 4.50799 -29.8704
ltibia 7.08962
lfoot -3.68844 -11.9447
ltoes -8.74719
1268
root 10.2986 17.9906 -8.83964 670.722 -85.1805 -311.103
lowerback 11.4401 2.36147 -3.3208
upperback 1.3829 2.60778 -0.920819
thorax -5.06987 1.31531 0.499323
lowerneck -20.4949 -2.35837 -9.78309
upperneck 34.6299 -2.73788 5.79934
head 15.9836 -1.88746 3.61824
rclavicle -5.24295e-015 -1.09332e-015
rhumerus -32.0287 -9.57315 -83.0928
rradius 34.6424
rwrist 3.28437
rhand -17.7571 9.37285
rfingers 7.12502
rthumb 8.5047 -20.4359
lclavicle -5.24295e-015 -1.09332e-015
lhumerus -34.5821 3.6486 85.5785
lradius 30.0242
lwrist -5.28448
lhand -16.3562 25.3345
lfingers 7.12502
lthumb 9.85653 55.0838
rfemur -15.3668 -10.533 14.1797
rtibia 62.4276
rfoot -5.86688 -7.66627
rtoes 13.9576
lfemur -3.18252 4.36243 -29.8821
ltibia 8.27901
lfoot -4.43004 -11.9637
ltoes -8.51456
1269
root 10.206 17.9733 -8.82789 672.982 -84.9109 -313.386
lowerback 11.4985 2.2752 -3.45305
upperback 1.37693 2.47362 -0.920809
thorax -5.10948 1.25213 0.592599
lowerneck -20.4865 -2.36097 -9.76123
upperneck 34.6871 -2.71981 5.70267
head 16.0063 -1.89368 3.57695
rclavicle -6.21202e-017 6.26172e-015
rhumerus -32.3226 -9.95366 -82.8569
rradius 34.7393
rwrist 3.00392
rhand -17.642 9.25925
rfingers 7.12502
rthumb 8.61582 -20.5449
lclavicle -6.21202e-017 6.26172e-015
lhumerus -34.4038 4.18626 85.4791
lradius 29.6925
lwrist -5.82528
lhand -16.9206 25.9014
lfingers 7.12502
lthumb 9.31193 55.6758
rfemur -16.3551 -10.1896 14.1462
rtibia 62.3096
rfoot -6.93824 -7.44041
rtoes 12.9209
lfemur -3.30576 4.25794 -30.0392
ltibia 9.3355
lfoot -5.29685 -11.9706
ltoes -7.85763
1270
root 10.1172 17.9506 -8.81395 674.944 -84.5642 -315.435
lowerback 11.6777 2.15239 -3.61789
upperback 1.37231 2.28411 -0.860762
thorax -5.21566 1.16362 0.772076
lowerneck -20.4014 -2.35331 -10.0325
upperneck 34.719 -2.61391 5.69737
head 15.9967 -1.89046 3.64326
rclavicle -6.11263e-015 -1.11319e-014
rhumerus -32.5886 -10.0228 -82.5783
rradius 34.8169
rwrist 2.80284
rhand -17.6258 9.13677
rfingers 7.12502
rthumb 8.63146 -20.6668
lclavicle -6.11263e-015 -1.11319e-014
lhumerus -34.3046 4.73752 85.4848
lradius 29.4697
lwrist -6.25814
lhand -16.7145 26.2637
lfingers 7.12502
lthumb 9.51086 56.0291
rfemur -17.2223 -9.83941 14.0347
rtibia 62.0583
rfoot -7.97544 -7.44084
rtoes 11.6243
lfemur -3.38526 4.11594 -30.2424
ltibia 10.4114
lfoot -6.21208 -11.9061
ltoes -7.52243
1271
root 10.0291 17.9306 -8.79865 678.446 -84.2334 -318.94
lowerback 11.7037 2.0276 -3.57267
upperback 1.40506 2.12866 -0.783694
thorax -5.19029 1.0865 0.85275
lowerneck -20.3698 -2.3625 -10.2295
upperneck 34.7741 -2.56109 5.70366
head 16.0156 -1.89713 3.69265
rclavicle -1.22501e-014 7.05686e-015
rhumerus -32.7532 -10.2204 -82.2919
rradius 34.8135
rwrist 2.64852
rhand -17.8087 8.98017
rfingers 7.12502
rthumb 8.45498 -20.8306
lclavicle -1.22501e-014 7.05686e-015
lhumerus -34.0844 5.22476 85.5705
lradius 29.3366
lwrist -6.6219
lhand -16.9122 26.52
lfingers 7.12502
lthumb 9.32011 56.294
rfemur -18.1367 -9.58759 14.0938
rtibia 61.6507
rfoot -8.65625 -7.38084
rtoes 7.94158
lfemur -3.60381 3.91576 -30.2538
ltibia 11.5306
lfoot -6.99394 -11.8865
ltoes -7.10477
1272
root 9.93768 17.9135 -8.78558 681.751 -83.9311 -322.233
lowerback 11.673 1.95351 -3.4706
upperback 1.47049 2.04635 -0.771354
thorax -5.09754 1.04205 0.824218
lowerneck -20.4087 -2.40421 -10.1137
upperneck 34.7791 -2.62632 5.6102
head 16.0313 -1.92017 3.61898
rclavicle -1.30701e-014 -1.73937e-014
rhumerus -32.8647 -10.4784 -82.1294
rradius 34.7119
rwrist 2.49967
rhand -17.9094 8.94878
rfingers 7.12502
rthumb 8.35777 -20.8659
lclavicle -1.30701e-014 -1.73937e-014
lhumerus -33.7711 5.02308 85.7185
lradius 29.2605
lwrist -6.5601
lhand -17.2915 26.7619
lfingers 7.12502
lthumb 8.95405 56.5519
rfemur -19.0195 -9.34401 14.173
rtibia 61.1072
rfoot -9.30739 -7.05891
rtoes 5.25952
lfemur -3.83926 3.92132 -30.1979
ltibia 12.6302
lfoot -7.59755 -12.0622
ltoes -4.5588
1273
root 9.84392 17.8978 -8.77912 683.906 -83.551 -324.515
lowerback 11.8752 1.84355 -3.59478
upperback 1.5004 1.87457 -0.761306
thorax -5.17555 0.959693 0.927322
lowerneck -20.4236 -2.39054 -10.061
upperneck 34.8055 -2.65248 5.676
head 16.0502 -1.91557 3.63482
rclavicle -6.63444e-015 -1.09332e-015
rhumerus -33.0666 -10.3908 -82.1103
rradius 34.5937
rwrist 2.26697
rhand -18.0176 8.84741
rfingers 7.12502
rthumb 8.25331 -20.9714
lclavicle -6.63444e-015 -1.09332e-015
lhumerus -33.5915 4.67333 85.8488
lradius 29.2082
lwrist -6.23116
lhand -17.4258 26.8847
lfingers 7.12502
lthumb 8.82448 56.6802
rfemur -19.6688 -8.98407 14.1461
rtibia 60.4435
rfoot -9.99094 -6.6609
rtoes 4.99272
lfemur -3.87806 4.15572 -30.1838
ltibia 13.6491
lfoot -8.11402 -12.4824
ltoes -0.412596
1274
root 9.75058 17.8775 -8.77586 685.337 -83.1126 -326.096
lowerback 12.1119 1.71267 -3.82568
upperback 1.52634 1.65865 -0.74676
thorax -5.27715 0.858182 1.10257
lowerneck -20.4564 -2.38069 -10.1724
upperneck 34.847 -2.64388 5.80754
head 16.0818 -1.91008 3.71608
rclavicle -6.44684e-014 4.27387e-015
rhumerus -33.3313 -10.2652 -82.0551
rradius 34.5695
rwrist 2.14869
rhand -18.2235 8.71638
rfingers 7.12502
rthumb 8.05461 -21.1101
lclavicle -6.44684e-014 4.27387e-015
lhumerus -33.4289 4.58152 85.9128
lradius 29.1179
lwrist -6.08754
lhand -17.2558 26.7357
lfingers 7.12502
lthumb 8.9885 56.5242
rfemur -20.237 -8.54366 14.0548
rtibia 59.6869
rfoot -10.5512 -6.44859
rtoes 5.54799
lfemur -3.72178 4.35948 -30.2215
ltibia 14.4995
lfoot -8.82153 -12.8966
ltoes 0.86523
1275
root 9.65677 17.8561 -8.76859 686.448 -82.7045 -327.273
lowerback 12.1954 1.63403 -3.97745
upperback 1.58718 1.52951 -0.747147
thorax -5.25707 0.795717 1.20834
lowerneck -20.526 -2.4204 -10.1841
upperneck 34.8918 -2.66504 5.739
head 16.1233 -1.93037 3.68577
rclavicle -1.01877e-015 1.23246e-014
rhumerus -33.5545 -10.1982 -81.9122
rradius 34.585
rwrist 2.02888
rhand -18.1552 8.56744
rfingers 7.12502
rthumb 8.12059 -21.2565
lclavicle -1.01877e-015 1.23246e-014
lhumerus -33.0774 4.7234 85.9706
lradius 28.9298
lwrist -6.43092
lhand -17.1148 26.5946
lfingers 7.12502
lthumb 9.12458 56.3772
rfemur -20.8737 -8.09874 13.9497
rtibia 58.8435
rfoot -10.9749 -6.45432
rtoes 5.33327
lfemur -3.48827 4.04989 -30.3179
ltibia 15.0674
lfoot -9.43766 -12.8058
ltoes 0.550945
1276
root 9.56299 17.8433 -8.76321 688.181 -82.3509 -328.957
lowerback 12.1985 1.63319 -4.0082
upperback 1.59934 1.52446 -0.74658
thorax -5.24653 0.793518 1.2272
lowerneck -20.5024 -2.52254 -10.161
upperneck 34.8737 -2.79937 5.66583
head 16.1234 -1.99146 3.62256
rclavicle -2.67738e-014 1.15295e-014
rhumerus -33.8493 -10.548 -81.648
rradius 34.5536
rwrist 2.22004
rhand -18.0196 8.43864
rfingers 7.12502
rthumb 8.25146 -21.3802
lclavicle -2.67738e-014 1.15295e-014
lhumerus -32.7422 4.51869 86.1916
lradius 28.8268
lwrist -6.76764
lhand -17.326 26.3051
lfingers 7.12502
lthumb 8.92078 56.0965
rfemur -21.64 -7.49933 14.0074
rtibia 57.9024
rfoot -11.4628 -6.86413
rtoes 5.15577
lfemur -3.40284 3.37469 -30.3399
ltibia 15.4525
lfoot -9.94169 -12.4297
ltoes 0.0169169
